<!-- <?xml version="1.0" encoding="utf-8"?>
Generator: Adobe Illustrator 17.1.0, SVG Export Plug-In . SVG Version: 6.00 Build 0) 
<!DOCTYPE svg PUBLIC "-//W3C//DTD SVG 1.1//EN" "http://www.w3.org/Graphics/SVG/1.1/DTD/svg11.dtd"> -->
<svg version="1.1" id="Слой_1" xmlns="http://www.w3.org/2000/svg" xmlns:xlink="http://www.w3.org/1999/xlink" x="0px" y="0px"
	 viewBox="0 0 1737.2 636.1" enable-background="new 0 0 1737.2 636.1" xml:space="preserve">
<defs>
	<mask id='mask-1' x='0' y='0' width='100' height='100'>
		
	</mask>
</defs>
<rect x="1200.4" y="372.5" fill-rule="evenodd" clip-rule="evenodd" fill="#FFFFFF" width="1163.6" height="12.1"/>


<path id="zalivka" fill-rule="evenodd" clip-rule="evenodd" fill="#F58220" d="M622.4,194c0,0.9-18.6,27.8-55.9,80.9
	c-18.8,26.2-32.8,46.6-42,61.3c-9.2,14.7-14,23.8-14.4,27.3c0,4,1.4,6.1,4.2,6.1c8.5,0,27.9-4.8,35-9.6c-5.1,6.7-22,17.7-40.1,18
	c-1.8,0-7.2-0.6-8.9-1.9c-1.7-1.3-2.6-2.7-2.6-4.5c0-6.9,8.4-23.3,25.3-49.3c9.5-14.9,16.7-26.3,21.6-34c4.9-7.7,7.6-12,8.2-12.9
	c-10.9,10.5-21.7,21-32.5,31.4c-10.8,10.4-21.7,20.8-32.8,31.4c-27.8,25.3-48.8,38-63.3,38.2c-2.8,0-5.4-0.6-7.6-1.7
	c-2.3-1.1-4.3-3.1-6.1-5.9c-3.2-4.4-5-9.9-5.5-16.6c0-77.8,182.8-331.7,165.5-300.7c-17.8,31.8-200.7,311.5-141.7,311.5
	c11.4,0,38.3-22.7,83.9-66c35.1-33.4,68.1-62.6,98.2-99.7c4.1-5.1,7-7.6,9-7.6c1.6,0,2.5,0.1,2.6,0.3V194L622.4,194z M663.3,377.7
	c3,0.4,6.5,0.4,10.7,0c4.1-0.4,8.8-1.4,14-3.2c5.2-1.8,10.9-4.3,17-7.8c6.1-3.4,22.1-20,29.1-26c1.9-1.6,2.7-7.3-0.2-5
	c-3.5,2.8-18.3,18.5-22.3,21.2c-4,2.7-8.3,5.1-12.7,7.2c-4.4,2.1-8.9,3.6-13.6,4.3c-4.7,0.8-9.3,0.5-13.8-0.9
	c-3.5-1.1-6.3-2.8-8.3-5.1c-2-2.4-3-5.9-3-10.7c0-2.1,0.8-5.1,2.5-9c1.7-3.9,4.1-7.3,7.2-10.3c6.5-6.3,9.8-10.4,9.8-12.1
	c0-1.9-1.1-2.9-3.4-2.9c-3,0-7.5,4-13.4,12.1c-4.2,5.3-7.8,10.2-10.7,14.9c-2.9,4.7-5.3,7.7-7.2,9.1c-1.9,1.6-4,3.2-6.2,4.9
	c-2.2,1.7-4.4,3.2-6.6,4.5c-2.2,1.3-4.3,2.3-6.3,2.9c-2,0.6-3.9,0.7-5.7,0.1c-1.8-0.7-3-1.7-3.7-2.9c-0.7-1.2-1.1-3.3-1.1-6.3
	c0.2-3,1.3-6.8,3.4-11.5c2.1-4.7,5.3-8.7,9.5-12.3c2.3-1.9,4.7-3.5,7.1-4.6c2.5-1.1,4.7-2.9,6.6-5.1c0.5-1.2,0.5-2.3,0-3.2
	c-0.5-0.9-1.2-1.6-2.1-2.1c-0.9-0.5-1.8-0.8-2.9-0.9c-1.1-0.1-1.9,0-2.6,0.4c-1.9,0.9-4.1,3.3-6.6,7.1c-2.5,3.9-6.2,8.3-11.3,13.2
	c-4.9,4.9-9.3,9-13,12.4c-3.8,3.3-7.2,6.1-10.1,8.4c-3,2.3-5.7,4.2-8,5.7c-2.4,1.5-4.6,2.8-6.7,3.8c-2.6,1.4-4.8,2.2-6.6,2.2
	c-1.8,0.1-3.3-0.1-4.5-0.7c-1.6-0.5-2.4-1.6-2.4-3.2c0-1.6,0.1-3.4,0.4-5.5c0.3-2.1,0.4-4.3,0.5-6.5c0.1-2.2-0.5-4.1-1.7-5.7
	c-1.1-1.4-2.8-1.8-5.3-1.2c-2.5,0.6-4.7,1.7-6.9,3.3c-1.6,1.4-3.1,3.3-4.5,5.8c-1.4,2.5-1.9,5.8-1.6,10c0.2,3.5,1.9,6.5,5.1,9.1
	c3.3,2.5,6.4,3.7,9.4,3.6c4.2-0.2,8.1-1,11.7-2.4c3.6-1.4,7.2-3.3,10.8-5.7c3.6-2.4,7.4-5.3,11.5-8.7c4-3.4,8.7-7.2,14-11.5
	c-1.4,2.5-2.5,5.1-3.2,7.8c-0.7,2.7-0.9,5.3-0.5,7.6c0.4,2.4,1.2,4.4,2.5,6.1c1.3,1.7,3.3,2.6,5.9,2.8c2.3,0.2,4.9-0.4,7.9-1.6
	c3-1.2,6.1-2.9,9.2-4.9c3.2-2,6.3-4.1,9.5-6.3c3.2-2.2,6.1-4.2,8.7-5.9c-0.4,7,0.9,12.1,3.8,15.2C655.3,375.1,658.9,377,663.3,377.7
	L663.3,377.7z M853.3,351.4c0,0.4,0,0.8-0.1,1.3c-0.1,0.5-0.4,1-0.9,1.3c-7.9,4-14.9,7.5-21.1,10.3c-6.1,2.8-11.7,5.1-16.7,6.9
	c-5,1.8-9.7,3-14.1,3.8c-4.4,0.8-8.7,1.2-12.9,1.2c-9.8,0-14.8-5.3-15-15.8c0-1.9,0.2-4.3,0.7-7.2c0.4-2.9,1.2-6.4,2.2-10.4
	c-6.5,3.9-13.2,7.9-20.2,12c-6.9,4.1-14.2,8.7-21.7,13.6c-10.4,6.9-16,10.3-16.9,10.3c-0.4,0-1-0.4-1.8-1.1c-1.1-0.4-1.6-1-1.6-1.8
	c0-1.2,0.7-3.3,2.2-6.1c1.5-2.8,4-6.7,7.5-11.6c2.4-3.7,5.1-7.2,7.9-10.5c0.9-1.1,1.6-1.9,2.2-2.5c0.6-0.6,1.1-1.2,1.4-1.7
	c0.4-1.4,0.2-2.2-0.4-2.4c-5.4-1.5-0.1-4.9,2.2-7.1c1.4-1.3,3.5-2.6,6.2-4.1c2.7-1.5,4.8-2.4,6.2-2.8c2.5-0.4,4,0.1,4.5,1.3
	c0.5,1.2,0.6,3,0.3,5.3c0,1.4-2.9,5.9-8.7,13.4c-2.5,3.3-4.6,6.1-6.5,8.4c-1.8,2.3-3.5,4.1-4.9,5.5c33.4-22.8,54.9-34.3,64.6-34.3
	c0.9,0,1.5,1.1,1.8,3.4c0,0.2-2.6,3.4-7.9,9.8c-5.1,6-7.7,11.9-7.9,17.9c0,6.3,4.4,9.6,13.2,9.8c2.1,0,4.7-0.2,7.9-0.5
	c3.2-0.4,6.9-1.1,11.3-2.2c4.4-1.1,9.4-2.9,15.2-5.1c5.7-2.3,12.1-5.4,19.1-9.5c0.2-0.4,0.7-0.5,1.6-0.5
	C852.8,349.5,853.1,350.1,853.3,351.4L853.3,351.4z M929,334.7c-0.2-1.1-1.1-1.6-2.9-1.6c-2.1,0.2-10.5,6.2-25,18.2
	c-14.8,12.1-25.7,18.2-32.7,18.2c-9.3-0.4-14-3.3-14-8.7c0.5-6.9,3.7-13.8,9.5-20.8c6.2-7.2,9.2-10.6,9.2-10.3
	c-0.4-1.9-1.9-2.8-4.7-2.6c-3.7,1.8-8.3,6.5-14,14.2c-5.6,9.3-8.4,17.4-8.4,24.2c0,8.6,4.1,12.9,12.4,12.9c8.3,0,19.9-4.8,34.8-14.5
	l-87.8,97c-9.8,10.5-14.8,20-14.8,28.5c0.2,1.4,0.4,2.9,0.5,4.3c0.2,1.5,0.4,3.3,0.8,5.4c6.2-0.4,10.3-3.3,12.4-9c0-0.4,0-0.9,0-1.7
	c0-0.8-0.1-1.7-0.3-2.8c-0.2-1.1-0.4-1.9-0.5-2.5c-0.2-0.6-0.3-1.2-0.3-1.7c0.4-1.8,1.4-4.3,3-7.6c1.7-3.3,4.3-7.4,7.8-12.1
	c8.4-10.7,17.2-21.4,26.4-32.2c9.1-10.7,18.9-21.4,29.3-32.2c3.7-3.9,9-9.3,15.9-16.3c6.9-7,15.7-15.8,26.2-26.4
	C923.2,343,929,336.3,929,334.7L929,334.7z M1062.8,350.3c0,1.4-0.4,2.3-1.1,2.6c-7.2,5.8-13.9,10.4-20,13.8
	c-6.1,3.4-11.8,6-16.9,7.8c-5.1,1.8-9.7,2.8-13.8,3.2c-4.1,0.4-7.6,0.4-10.4,0c-4.2-0.7-7.6-2.6-10-5.7c-2.5-3.1-4.1-8-5-14.9
	c-4.7,4.9-11.4,9.5-20,13.7c-3.5,1.6-6.5,2.9-9.1,3.8c-2.5,1-4.6,1.3-6.2,0.9c-7.9-1.1-12.2-4.9-12.9-11.6c0-6.3,1.6-10.8,4.7-13.4
	c1.9-1.6,4.2-2.7,6.7-3.3c2.5-0.6,4.2,0,4.9,1.7c0.7,1.6,1,3.3,0.9,5c-0.1,1.8-0.2,3.4-0.4,5c-0.2,1.6-0.1,3,0.3,4.3
	c0.4,1.3,1.2,2.2,2.6,2.8c1.2,0.4,2.9,0.2,5.1-0.5c2.2-0.7,4.5-1.7,6.9-3c2.4-1.3,4.7-2.8,7.1-4.3c2.4-1.6,4.3-3.1,5.9-4.5
	c1.9-1.4,4.3-3.8,7.2-7.1c2.9-3.3,6.4-7.6,10.4-12.9c1.6-1.9,3.3-4,5-6.2c1.8-2.2,3.5-4.2,5.1-5.9c1.7-1.8,3.2-3.3,4.6-4.5
	c1.4-1.2,2.5-1.8,3.2-1.8c0.5,0,1.2,0,2,0c0.8,0,1.5,0.2,2.1,0.7c0.6,0.4,1.1,1.1,1.3,2.1c0.3,1,0,2.4-0.7,4.3
	c-0.9,2.5-2.8,4.7-5.8,6.6c-3,1.9-6.1,4.5-9.5,7.6c-6.3,6-9.6,11.1-9.8,15.3c0,4,0.9,7.4,2.8,10.1c1.8,2.7,4.5,4.6,8,5.7
	c4.7,1.4,9.4,1.7,14,0.9c4.6-0.8,9.1-2.2,13.6-4.2c4.5-2,8.7-4.4,12.8-7.2c4-2.8,7.9-5.5,11.6-8.2
	C1061.6,347.9,1062.5,348.4,1062.8,350.3L1062.8,350.3z M1103.7,356.4c3.5-3.5,6.2-7.1,8-10.8c1.8-3.7,2.9-7.1,3.3-10.1
	c0.4-3.1,0-5.7-0.9-7.8c-1-2.1-2.5-3.3-4.6-3.7c-3.7-1.1-7,0.1-10,3.4c-3,3.3-4.7,8.1-5,14.2c-0.5,4.4,0.3,7.5,2.5,9.4
	C1099.2,352.8,1101.4,354.6,1103.7,356.4L1103.7,356.4z M1109,359.3c1.8-1.9,3.4-4,5-6.3c1.4-1.9,2.8-4.2,4.2-6.7
	c1.4-2.5,2.5-5.1,3.4-7.8c1.8-6,2.1-11.4,1.1-16.2c-1.1-4.8-3.5-7.2-7.4-7.2c-3-0.2-6.1,0.5-9.2,2.1c-3.2,1.6-6.1,3.7-8.7,6.3
	c-2.6,2.6-4.8,5.5-6.6,8.7c-1.8,3.2-2.7,6.3-2.9,9.5c-0.4,5.1,0.9,9.1,3.7,12c2.8,2.9,5.6,5.3,8.4,7.2c-6.9,7-13.8,10.5-20.8,10.5
	c-3.3,0-6.4-1.1-9.2-3.4c-2.6-2.3-4-5.1-4-8.4c0-2.6,0.8-5.8,2.5-9.6c1.7-3.8,4-8,6.9-12.5c2.9-4.6,6.3-9.4,10.3-14.4
	c4-5,8.1-10.1,12.5-15.4c1.2-1.4,2.6-3,4.2-4.9c1.6-1.8,3.3-3.7,5-5.5c1.8-1.8,3.4-3.5,4.9-5c1.5-1.5,2.8-2.7,3.8-3.6
	c1.4-1.4,2.2-2.4,2.2-2.9c0.1-0.5,0.1-1.2,0.1-2.1c-0.4-1.4-1.3-2.2-2.9-2.5c-1.6-0.3-3-0.3-4.2-0.1c-2.3,1.4-4.3,3-6.2,4.9
	c-1.8,1.8-3.9,4.7-6.2,8.6c-2.8,4.9-6.5,10.1-10.9,15.5c-4.5,5.4-10,12.6-16.5,21.3c-5.8,7.7-10.2,14.5-13.3,20.3
	c-3.1,5.8-4.6,11-4.6,15.6c0,9.8,4.9,14.8,14.8,14.8c6.1-0.2,12.3-1.8,18.4-4.7c6.2-3,12.2-7.6,18.2-13.7c7.4,0.9,14.1,0.7,20.3-0.4
	c6.1-1.1,11-2.6,14.5-4.3c2.5-1.2,4.5-2.4,6.1-3.6c1.6-1.1,2.1-2.8,1.6-4.9c-0.2-0.5-0.9-0.8-2.2-0.9c-1.3-0.1-2.4,0.2-3.3,0.9
	c-1.6,1.4-3.7,2.8-6.3,4.2c-2.6,1.4-5.4,2.6-8.4,3.6c-3,1-6.1,1.6-9.2,2C1114.8,360.4,1111.8,360.1,1109,359.3L1109,359.3z
	 M1165.1,383.2c-3.5,0-6.8-0.4-9.9-1.3c-3.1-0.9-5.8-2.2-8-4c-2.3-1.8-4-4-5.3-6.7c-1.2-2.7-1.7-5.9-1.3-9.6c0.5-4.6,2-9.4,4.5-14.4
	c2.5-5,6.9-10.1,13.2-15.2c3.2-2.6,6.5-5,10-7.1c3.5-2.1,7.1-4,10.7-5.5c3.6-1.6,7.1-2.8,10.4-3.7c3.3-0.9,6.4-1.4,9.2-1.6
	c5.6,0,8.6,2.6,9,7.9c0,2.5-1,4.9-3,7.4c-2,2.5-4.5,4.7-7.5,6.7c-3,2-6.2,3.7-9.8,5.1c-3.5,1.4-6.7,2.2-9.5,2.4
	c-1.9,0-3.3-0.3-4.1-0.8c-0.8-0.5-1.4-1.2-1.7-2.1c-1.1-2.5-0.7-4.3,1.2-5.7c1.8-1.3,4.1-2,6.7-2c0.4,0,1.2,0.1,2.6,0.4
	c1.4,0.3,3.3,0.6,5.8,0.9c1.1,0.2,2.3-0.1,3.8-0.8c1.5-0.7,2.8-1.6,4-2.6c1.1-1.1,2-2.2,2.5-3.6c0.5-1.3,0.5-2.5,0-3.6
	c-0.9-1.2-1.7-2-2.4-2.2c-0.7-0.3-2.2-0.4-4.5-0.4c-3.3,0-7.3,1.1-12,3.2c-4.7,2.1-9.4,5.3-14.1,9.5c-9,8.6-13.4,16.2-13.4,22.7
	c0,6,2,10.4,5.9,13.3c4,2.9,9.7,2.8,17,2.8C1248.2,372.7,1211.7,382.6,1165.1,383.2z"/>
<line fill-rule="evenodd" clip-rule="evenodd" fill="none" stroke="#F58220" stroke-width="4" stroke-miterlimit="22.9256" x1="1170.5" y1="378.6" x2="1350.5" y2="378.5"/>
<path fill-rule="evenodd" clip-rule="evenodd" fill="#F58220" d="M622.4,194c0,0.9-18.6,27.8-55.9,80.9
	c-18.8,26.2-32.8,46.6-42,61.3c-9.2,14.7-14,23.8-14.4,27.3c0,4,1.4,6.1,4.2,6.1c8.5,0,27.9-4.8,35-9.6c-5.1,6.7-22,17.7-40.1,18
	c-1.8,0-7.2-0.6-8.9-1.9c-1.7-1.3-2.6-2.7-2.6-4.5c0-6.9,8.4-23.3,25.3-49.3c9.5-14.9,16.7-26.3,21.6-34c4.9-7.7,7.6-12,8.2-12.9
	c-10.9,10.5-21.7,21-32.5,31.4c-10.8,10.4-21.7,20.8-32.8,31.4c-27.8,25.3-48.8,38-63.3,38.2c-2.8,0-5.4-0.6-7.6-1.7
	c-2.3-1.1-4.3-3.1-6.1-5.9c-3.2-4.4-5-9.9-5.5-16.6c0-77.8,182.8-331.7,165.5-300.7c-17.8,31.8-200.7,311.5-141.7,311.5
	c11.4,0,38.3-22.7,83.9-66c35.1-33.4,68.1-62.6,98.2-99.7c4.1-5.1,7-7.6,9-7.6c1.6,0,2.5,0.1,2.6,0.3V194L622.4,194z M663.3,377.7
	c3,0.4,6.5,0.4,10.7,0c4.1-0.4,8.8-1.4,14-3.2c5.2-1.8,10.9-4.3,17-7.8c6.1-3.4,22.1-20,29.1-26c1.9-1.6,2.7-7.3-0.2-5
	c-3.5,2.8-18.3,18.5-22.3,21.2c-4,2.7-8.3,5.1-12.7,7.2c-4.4,2.1-8.9,3.6-13.6,4.3c-4.7,0.8-9.3,0.5-13.8-0.9
	c-3.5-1.1-6.3-2.8-8.3-5.1c-2-2.4-3-5.9-3-10.7c0-2.1,0.8-5.1,2.5-9c1.7-3.9,4.1-7.3,7.2-10.3c6.5-6.3,9.8-10.4,9.8-12.1
	c0-1.9-1.1-2.9-3.4-2.9c-3,0-7.5,4-13.4,12.1c-4.2,5.3-7.8,10.2-10.7,14.9c-2.9,4.7-5.3,7.7-7.2,9.1c-1.9,1.6-4,3.2-6.2,4.9
	c-2.2,1.7-4.4,3.2-6.6,4.5c-2.2,1.3-4.3,2.3-6.3,2.9c-2,0.6-3.9,0.7-5.7,0.1c-1.8-0.7-3-1.7-3.7-2.9c-0.7-1.2-1.1-3.3-1.1-6.3
	c0.2-3,1.3-6.8,3.4-11.5c2.1-4.7,5.3-8.7,9.5-12.3c2.3-1.9,4.7-3.5,7.1-4.6c2.5-1.1,4.7-2.9,6.6-5.1c0.5-1.2,0.5-2.3,0-3.2
	c-0.5-0.9-1.2-1.6-2.1-2.1c-0.9-0.5-1.8-0.8-2.9-0.9c-1.1-0.1-1.9,0-2.6,0.4c-1.9,0.9-4.1,3.3-6.6,7.1c-2.5,3.9-6.2,8.3-11.3,13.2
	c-4.9,4.9-9.3,9-13,12.4c-3.8,3.3-7.2,6.1-10.1,8.4c-3,2.3-5.7,4.2-8,5.7c-2.4,1.5-4.6,2.8-6.7,3.8c-2.6,1.4-4.8,2.2-6.6,2.2
	c-1.8,0.1-3.3-0.1-4.5-0.7c-1.6-0.5-2.4-1.6-2.4-3.2c0-1.6,0.1-3.4,0.4-5.5c0.3-2.1,0.4-4.3,0.5-6.5c0.1-2.2-0.5-4.1-1.7-5.7
	c-1.1-1.4-2.8-1.8-5.3-1.2c-2.5,0.6-4.7,1.7-6.9,3.3c-1.6,1.4-3.1,3.3-4.5,5.8c-1.4,2.5-1.9,5.8-1.6,10c0.2,3.5,1.9,6.5,5.1,9.1
	c3.3,2.5,6.4,3.7,9.4,3.6c4.2-0.2,8.1-1,11.7-2.4c3.6-1.4,7.2-3.3,10.8-5.7c3.6-2.4,7.4-5.3,11.5-8.7c4-3.4,8.7-7.2,14-11.5
	c-1.4,2.5-2.5,5.1-3.2,7.8c-0.7,2.7-0.9,5.3-0.5,7.6c0.4,2.4,1.2,4.4,2.5,6.1c1.3,1.7,3.3,2.6,5.9,2.8c2.3,0.2,4.9-0.4,7.9-1.6
	c3-1.2,6.1-2.9,9.2-4.9c3.2-2,6.3-4.1,9.5-6.3c3.2-2.2,6.1-4.2,8.7-5.9c-0.4,7,0.9,12.1,3.8,15.2C655.3,375.1,658.9,377,663.3,377.7
	L663.3,377.7z M853.3,351.4c0,0.4,0,0.8-0.1,1.3c-0.1,0.5-0.4,1-0.9,1.3c-7.9,4-14.9,7.5-21.1,10.3c-6.1,2.8-11.7,5.1-16.7,6.9
	c-5,1.8-9.7,3-14.1,3.8c-4.4,0.8-8.7,1.2-12.9,1.2c-9.8,0-14.8-5.3-15-15.8c0-1.9,0.2-4.3,0.7-7.2c0.4-2.9,1.2-6.4,2.2-10.4
	c-6.5,3.9-13.2,7.9-20.2,12c-6.9,4.1-14.2,8.7-21.7,13.6c-10.4,6.9-16,10.3-16.9,10.3c-0.4,0-1-0.4-1.8-1.1c-1.1-0.4-1.6-1-1.6-1.8
	c0-1.2,0.7-3.3,2.2-6.1c1.5-2.8,4-6.7,7.5-11.6c2.4-3.7,5.1-7.2,7.9-10.5c0.9-1.1,1.6-1.9,2.2-2.5c0.6-0.6,1.1-1.2,1.4-1.7
	c0.4-1.4,0.2-2.2-0.4-2.4c-5.4-1.5-0.1-4.9,2.2-7.1c1.4-1.3,3.5-2.6,6.2-4.1c2.7-1.5,4.8-2.4,6.2-2.8c2.5-0.4,4,0.1,4.5,1.3
	c0.5,1.2,0.6,3,0.3,5.3c0,1.4-2.9,5.9-8.7,13.4c-2.5,3.3-4.6,6.1-6.5,8.4c-1.8,2.3-3.5,4.1-4.9,5.5c33.4-22.8,54.9-34.3,64.6-34.3
	c0.9,0,1.5,1.1,1.8,3.4c0,0.2-2.6,3.4-7.9,9.8c-5.1,6-7.7,11.9-7.9,17.9c0,6.3,4.4,9.6,13.2,9.8c2.1,0,4.7-0.2,7.9-0.5
	c3.2-0.4,6.9-1.1,11.3-2.2c4.4-1.1,9.4-2.9,15.2-5.1c5.7-2.3,12.1-5.4,19.1-9.5c0.2-0.4,0.7-0.5,1.6-0.5
	C852.8,349.5,853.1,350.1,853.3,351.4L853.3,351.4z M929,334.7c-0.2-1.1-1.1-1.6-2.9-1.6c-2.1,0.2-10.5,6.2-25,18.2
	c-14.8,12.1-25.7,18.2-32.7,18.2c-9.3-0.4-14-3.3-14-8.7c0.5-6.9,3.7-13.8,9.5-20.8c6.2-7.2,9.2-10.6,9.2-10.3
	c-0.4-1.9-1.9-2.8-4.7-2.6c-3.7,1.8-8.3,6.5-14,14.2c-5.6,9.3-8.4,17.4-8.4,24.2c0,8.6,4.1,12.9,12.4,12.9c8.3,0,19.9-4.8,34.8-14.5
	l-87.8,97c-9.8,10.5-14.8,20-14.8,28.5c0.2,1.4,0.4,2.9,0.5,4.3c0.2,1.5,0.4,3.3,0.8,5.4c6.2-0.4,10.3-3.3,12.4-9c0-0.4,0-0.9,0-1.7
	c0-0.8-0.1-1.7-0.3-2.8c-0.2-1.1-0.4-1.9-0.5-2.5c-0.2-0.6-0.3-1.2-0.3-1.7c0.4-1.8,1.4-4.3,3-7.6c1.7-3.3,4.3-7.4,7.8-12.1
	c8.4-10.7,17.2-21.4,26.4-32.2c9.1-10.7,18.9-21.4,29.3-32.2c3.7-3.9,9-9.3,15.9-16.3c6.9-7,15.7-15.8,26.2-26.4
	C923.2,343,929,336.3,929,334.7L929,334.7z M1062.8,350.3c0,1.4-0.4,2.3-1.1,2.6c-7.2,5.8-13.9,10.4-20,13.8
	c-6.1,3.4-11.8,6-16.9,7.8c-5.1,1.8-9.7,2.8-13.8,3.2c-4.1,0.4-7.6,0.4-10.4,0c-4.2-0.7-7.6-2.6-10-5.7c-2.5-3.1-4.1-8-5-14.9
	c-4.7,4.9-11.4,9.5-20,13.7c-3.5,1.6-6.5,2.9-9.1,3.8c-2.5,1-4.6,1.3-6.2,0.9c-7.9-1.1-12.2-4.9-12.9-11.6c0-6.3,1.6-10.8,4.7-13.4
	c1.9-1.6,4.2-2.7,6.7-3.3c2.5-0.6,4.2,0,4.9,1.7c0.7,1.6,1,3.3,0.9,5c-0.1,1.8-0.2,3.4-0.4,5c-0.2,1.6-0.1,3,0.3,4.3
	c0.4,1.3,1.2,2.2,2.6,2.8c1.2,0.4,2.9,0.2,5.1-0.5c2.2-0.7,4.5-1.7,6.9-3c2.4-1.3,4.7-2.8,7.1-4.3c2.4-1.6,4.3-3.1,5.9-4.5
	c1.9-1.4,4.3-3.8,7.2-7.1c2.9-3.3,6.4-7.6,10.4-12.9c1.6-1.9,3.3-4,5-6.2c1.8-2.2,3.5-4.2,5.1-5.9c1.7-1.8,3.2-3.3,4.6-4.5
	c1.4-1.2,2.5-1.8,3.2-1.8c0.5,0,1.2,0,2,0c0.8,0,1.5,0.2,2.1,0.7c0.6,0.4,1.1,1.1,1.3,2.1c0.3,1,0,2.4-0.7,4.3
	c-0.9,2.5-2.8,4.7-5.8,6.6c-3,1.9-6.1,4.5-9.5,7.6c-6.3,6-9.6,11.1-9.8,15.3c0,4,0.9,7.4,2.8,10.1c1.8,2.7,4.5,4.6,8,5.7
	c4.7,1.4,9.4,1.7,14,0.9c4.6-0.8,9.1-2.2,13.6-4.2c4.5-2,8.7-4.4,12.8-7.2c4-2.8,7.9-5.5,11.6-8.2
	C1061.6,347.9,1062.5,348.4,1062.8,350.3L1062.8,350.3z M1103.7,356.4c3.5-3.5,6.2-7.1,8-10.8c1.8-3.7,2.9-7.1,3.3-10.1
	c0.4-3.1,0-5.7-0.9-7.8c-1-2.1-2.5-3.3-4.6-3.7c-3.7-1.1-7,0.1-10,3.4c-3,3.3-4.7,8.1-5,14.2c-0.5,4.4,0.3,7.5,2.5,9.4
	C1099.2,352.8,1101.4,354.6,1103.7,356.4L1103.7,356.4z M1109,359.3c1.8-1.9,3.4-4,5-6.3c1.4-1.9,2.8-4.2,4.2-6.7
	c1.4-2.5,2.5-5.1,3.4-7.8c1.8-6,2.1-11.4,1.1-16.2c-1.1-4.8-3.5-7.2-7.4-7.2c-3-0.2-6.1,0.5-9.2,2.1c-3.2,1.6-6.1,3.7-8.7,6.3
	c-2.6,2.6-4.8,5.5-6.6,8.7c-1.8,3.2-2.7,6.3-2.9,9.5c-0.4,5.1,0.9,9.1,3.7,12c2.8,2.9,5.6,5.3,8.4,7.2c-6.9,7-13.8,10.5-20.8,10.5
	c-3.3,0-6.4-1.1-9.2-3.4c-2.6-2.3-4-5.1-4-8.4c0-2.6,0.8-5.8,2.5-9.6c1.7-3.8,4-8,6.9-12.5c2.9-4.6,6.3-9.4,10.3-14.4
	c4-5,8.1-10.1,12.5-15.4c1.2-1.4,2.6-3,4.2-4.9c1.6-1.8,3.3-3.7,5-5.5c1.8-1.8,3.4-3.5,4.9-5c1.5-1.5,2.8-2.7,3.8-3.6
	c1.4-1.4,2.2-2.4,2.2-2.9c0.1-0.5,0.1-1.2,0.1-2.1c-0.4-1.4-1.3-2.2-2.9-2.5c-1.6-0.3-3-0.3-4.2-0.1c-2.3,1.4-4.3,3-6.2,4.9
	c-1.8,1.8-3.9,4.7-6.2,8.6c-2.8,4.9-6.5,10.1-10.9,15.5c-4.5,5.4-10,12.6-16.5,21.3c-5.8,7.7-10.2,14.5-13.3,20.3
	c-3.1,5.8-4.6,11-4.6,15.6c0,9.8,4.9,14.8,14.8,14.8c6.1-0.2,12.3-1.8,18.4-4.7c6.2-3,12.2-7.6,18.2-13.7c7.4,0.9,14.1,0.7,20.3-0.4
	c6.1-1.1,11-2.6,14.5-4.3c2.5-1.2,4.5-2.4,6.1-3.6c1.6-1.1,2.1-2.8,1.6-4.9c-0.2-0.5-0.9-0.8-2.2-0.9c-1.3-0.1-2.4,0.2-3.3,0.9
	c-1.6,1.4-3.7,2.8-6.3,4.2c-2.6,1.4-5.4,2.6-8.4,3.6c-3,1-6.1,1.6-9.2,2C1114.8,360.4,1111.8,360.1,1109,359.3L1109,359.3z
	 M1165.1,383.2c-3.5,0-6.8-0.4-9.9-1.3c-3.1-0.9-5.8-2.2-8-4c-2.3-1.8-4-4-5.3-6.7c-1.2-2.7-1.7-5.9-1.3-9.6c0.5-4.6,2-9.4,4.5-14.4
	c2.5-5,6.9-10.1,13.2-15.2c3.2-2.6,6.5-5,10-7.1c3.5-2.1,7.1-4,10.7-5.5c3.6-1.6,7.1-2.8,10.4-3.7c3.3-0.9,6.4-1.4,9.2-1.6
	c5.6,0,8.6,2.6,9,7.9c0,2.5-1,4.9-3,7.4c-2,2.5-4.5,4.7-7.5,6.7c-3,2-6.2,3.7-9.8,5.1c-3.5,1.4-6.7,2.2-9.5,2.4
	c-1.9,0-3.3-0.3-4.1-0.8c-0.8-0.5-1.4-1.2-1.7-2.1c-1.1-2.5-0.7-4.3,1.2-5.7c1.8-1.3,4.1-2,6.7-2c0.4,0,1.2,0.1,2.6,0.4
	c1.4,0.3,3.3,0.6,5.8,0.9c1.1,0.2,2.3-0.1,3.8-0.8c1.5-0.7,2.8-1.6,4-2.6c1.1-1.1,2-2.2,2.5-3.6c0.5-1.3,0.5-2.5,0-3.6
	c-0.9-1.2-1.7-2-2.4-2.2c-0.7-0.3-2.2-0.4-4.5-0.4c-3.3,0-7.3,1.1-12,3.2c-4.7,2.1-9.4,5.3-14.1,9.5c-9,8.6-13.4,16.2-13.4,22.7
	c0,6,2,10.4,5.9,13.3c4,2.9,9.7,2.8,17,2.8C1248.2,372.7,1211.7,382.6,1165.1,383.2z"/>
<path fill-rule="evenodd" clip-rule="evenodd" fill="#F58220" d="M1169.2,383.1h547.3c2.3,0,2.8-2.3,2.8-5.2l0-0.1
	c0-2.9-0.5-5.2-2.8-5.2h-547.3c-2.3,0-4.1,2.3-4.1,5.2v0.1C1165.1,380.7,1166.9,383.1,1169.2,383.1z"/>
<path fill-rule="evenodd" clip-rule="evenodd" fill="none" stroke="#F58220" stroke-width="7.9999" stroke-miterlimit="22.9256" d="
	M426.7,372.4l-68.2,0.1c-5.7,1.3-71.7,138.3-107.5,207.4c-19.1,36.8,58-208.1,49.6-206.1L261,395.3c-9.4-0.5,114.6-304.2,96.5-275.8
	l-181.3,349c-6.5,2.1,18.3-134.2,8.5-120.1c-10.2,8.6-23.7,28.2-30.6,25.9l-107.7,0.1"/>
<g>
	<path fill="#4D4D4D" d="M1244.9,357h-6.1v-17.8h-7.6V357h-6.1v-22.7h19.7V357z"/>
	<path fill="#4D4D4D" d="M1258.9,352.5c1.1,0,2-0.3,2.7-0.9c0.7-0.6,1.1-1.4,1.1-2.5h5.7c0,1.5-0.4,2.9-1.3,4.2
		c-0.8,1.3-2,2.3-3.4,3c-1.4,0.7-3,1.1-4.7,1.1c-3.2,0-5.8-1-7.7-3.1c-1.9-2.1-2.8-4.9-2.8-8.5v-0.4c0-3.5,0.9-6.3,2.8-8.4
		c1.9-2.1,4.4-3.1,7.6-3.1c2.8,0,5.1,0.8,6.8,2.4c1.7,1.6,2.6,3.7,2.6,6.4h-5.7c0-1.2-0.4-2.1-1.1-2.9c-0.7-0.7-1.6-1.1-2.8-1.1
		c-1.4,0-2.5,0.5-3.2,1.5c-0.7,1-1.1,2.7-1.1,5v0.6c0,2.3,0.4,4,1.1,5C1256.4,352,1257.5,352.5,1258.9,352.5z"/>
	<path fill="#4D4D4D" d="M1285.5,334.3h6.1V357h-6.1v-14l-7.6,14h-6.1v-22.7h6.1v14L1285.5,334.3z"/>
	<path fill="#4D4D4D" d="M1304.8,341.1l3.8-6.8h6.5l-6.5,11.1l6.7,11.6h-6.5l-4-7.1l-4,7.1h-6.5l6.7-11.6l-6.4-11.1h6.5
		L1304.8,341.1z"/>
	<path fill="#4D4D4D" d="M1316.3,345.5c0-2.2,0.4-4.3,1.3-6c0.9-1.8,2.1-3.1,3.7-4.1c1.6-1,3.5-1.4,5.7-1.4c3.1,0,5.6,0.9,7.5,2.8
		s3,4.4,3.2,7.6l0,1.5c0,3.5-1,6.3-2.9,8.4c-1.9,2.1-4.5,3.2-7.8,3.2c-3.3,0-5.9-1-7.8-3.1s-2.9-4.9-2.9-8.5V345.5z M1322.3,345.9
		c0,2.2,0.4,3.8,1.2,4.9c0.8,1.1,2,1.7,3.5,1.7c1.5,0,2.6-0.6,3.4-1.7c0.8-1.1,1.2-2.9,1.2-5.4c0-2.1-0.4-3.7-1.2-4.9
		c-0.8-1.2-2-1.7-3.5-1.7c-1.5,0-2.6,0.6-3.4,1.7C1322.7,341.7,1322.3,343.5,1322.3,345.9z"/>
	<path fill="#4D4D4D" d="M1360.8,334.3V357h-6.1v-17.8h-5.3l-0.4,7c-0.2,3.7-1,6.5-2.2,8.2s-3.1,2.6-5.5,2.6h-2.1l-0.1-4.9l0.8-0.1
		c1.1-0.1,1.9-0.7,2.4-1.9c0.5-1.2,0.8-3.2,0.9-6.1l0.4-9.6H1360.8z"/>
	<path fill="#4D4D4D" d="M1364.6,345.5c0-2.2,0.4-4.3,1.3-6c0.9-1.8,2.1-3.1,3.7-4.1c1.6-1,3.5-1.4,5.7-1.4c3.1,0,5.6,0.9,7.5,2.8
		s3,4.4,3.2,7.6l0,1.5c0,3.5-1,6.3-2.9,8.4c-1.9,2.1-4.5,3.2-7.8,3.2c-3.3,0-5.9-1-7.8-3.1s-2.9-4.9-2.9-8.5V345.5z M1370.6,345.9
		c0,2.2,0.4,3.8,1.2,4.9c0.8,1.1,2,1.7,3.5,1.7c1.5,0,2.6-0.6,3.4-1.7c0.8-1.1,1.2-2.9,1.2-5.4c0-2.1-0.4-3.7-1.2-4.9
		c-0.8-1.2-2-1.7-3.5-1.7c-1.5,0-2.6,0.6-3.4,1.7C1371,341.7,1370.6,343.5,1370.6,345.9z"/>
	<path fill="#4D4D4D" d="M1405.2,339.2h-9.4V357h-6.1v-22.7h15.4V339.2z"/>
	<path fill="#4D4D4D" d="M1421.4,334.3h6.1V357h-6.1v-14l-7.6,14h-6.1v-22.7h6.1v14L1421.4,334.3z"/>
	<path fill="#4D4D4D" d="M1451.2,357h-6.1v-7.1c-1.1,0.2-2.2,0.3-3.2,0.3c-3.4,0-6-0.7-7.7-2.2c-1.7-1.5-2.6-3.6-2.6-6.4v-7.3h6.1
		v7.3c0,1.3,0.3,2.3,1,2.8c0.6,0.6,1.7,0.8,3.4,0.8c1,0,2.1-0.1,3.2-0.4v-10.6h6.1V357z"/>
	<path fill="#4D4D4D" d="M1466.2,357.4c-3.3,0-6-1-8.1-3.1s-3.1-4.8-3.1-8.1v-0.6c0-2.3,0.4-4.3,1.3-6.1c0.9-1.8,2.1-3.2,3.7-4.1
		c1.6-1,3.5-1.5,5.5-1.5c3.1,0,5.5,1,7.3,2.9s2.7,4.7,2.7,8.3v2.5h-14.4c0.2,1.5,0.8,2.7,1.8,3.6c1,0.9,2.2,1.3,3.7,1.3
		c2.3,0,4.2-0.8,5.5-2.5l3,3.3c-0.9,1.3-2.1,2.3-3.7,3C1469.8,357.1,1468.1,357.4,1466.2,357.4z M1465.5,338.8
		c-1.2,0-2.2,0.4-2.9,1.2c-0.7,0.8-1.2,2-1.4,3.5h8.4V343c0-1.3-0.4-2.4-1.1-3.1C1467.8,339.2,1466.8,338.8,1465.5,338.8z"/>
	<path fill="#4D4D4D" d="M1488.4,352.5c1.1,0,2-0.3,2.7-0.9c0.7-0.6,1.1-1.4,1.1-2.5h5.7c0,1.5-0.4,2.9-1.3,4.2
		c-0.8,1.3-2,2.3-3.4,3c-1.4,0.7-3,1.1-4.7,1.1c-3.2,0-5.8-1-7.7-3.1c-1.9-2.1-2.8-4.9-2.8-8.5v-0.4c0-3.5,0.9-6.3,2.8-8.4
		c1.9-2.1,4.4-3.1,7.6-3.1c2.8,0,5.1,0.8,6.8,2.4c1.7,1.6,2.6,3.7,2.6,6.4h-5.7c0-1.2-0.4-2.1-1.1-2.9c-0.7-0.7-1.6-1.1-2.8-1.1
		c-1.4,0-2.5,0.5-3.2,1.5c-0.7,1-1.1,2.7-1.1,5v0.6c0,2.3,0.4,4,1.1,5C1485.9,352,1487,352.5,1488.4,352.5z"/>
	<path fill="#4D4D4D" d="M1510.2,348.6h-2.4v8.4h-6.1v-22.7h6.1v8.5h2.2l4.9-8.5h7.6l-7.4,10.8l8.1,11.9h-8.1L1510.2,348.6z"/>
	<path fill="#4D4D4D" d="M1539.2,334.3h6.1V357h-6.1v-14l-7.6,14h-6.1v-22.7h6.1v14L1539.2,334.3z"/>
	<path fill="#4D4D4D" d="M1563.5,334.3h6.1V357h-6.1v-14l-7.6,14h-6.1v-22.7h6.1v14L1563.5,334.3z M1567.1,325.2
		c0,1.9-0.7,3.3-2,4.5s-3.1,1.7-5.2,1.7s-3.9-0.6-5.2-1.7s-2-2.6-2-4.5h4.3c0,0.9,0.3,1.6,0.8,2c0.5,0.5,1.2,0.7,2.2,0.7
		c0.9,0,1.6-0.2,2.1-0.7c0.5-0.5,0.8-1.2,0.8-2H1567.1z"/>
	<path fill="#4D4D4D" d="M1584.9,334.3h6.1v17.8h7.6v-17.8h6.1v17.8h3.4l-0.4,11.6h-5.6V357h-17V334.3z"/>
	<path fill="#4D4D4D" d="M1621.4,357.4c-3.3,0-6-1-8.1-3.1s-3.1-4.8-3.1-8.1v-0.6c0-2.3,0.4-4.3,1.3-6.1c0.9-1.8,2.1-3.2,3.7-4.1
		c1.6-1,3.5-1.5,5.5-1.5c3.1,0,5.5,1,7.3,2.9s2.7,4.7,2.7,8.3v2.5h-14.4c0.2,1.5,0.8,2.7,1.8,3.6c1,0.9,2.2,1.3,3.7,1.3
		c2.3,0,4.2-0.8,5.5-2.5l3,3.3c-0.9,1.3-2.1,2.3-3.7,3C1625,357.1,1623.3,357.4,1621.4,357.4z M1620.7,338.8c-1.2,0-2.2,0.4-2.9,1.2
		c-0.7,0.8-1.2,2-1.4,3.5h8.4V343c0-1.3-0.4-2.4-1.1-3.1C1623,339.2,1622,338.8,1620.7,338.8z"/>
	<path fill="#4D4D4D" d="M1653.8,357h-6.1v-8.7h-7.5v8.7h-6.1v-22.7h6.1v9.1h7.5v-9.1h6.1V357z"/>
	<path fill="#4D4D4D" d="M1677.3,339.2h-7.3V357h-6.1v-17.8h-7.1v-4.9h20.5V339.2z"/>
	<path fill="#4D4D4D" d="M1700.8,345.9c0,3.5-0.8,6.3-2.4,8.4c-1.6,2.1-3.7,3.2-6.4,3.2c-2.3,0-4.1-0.8-5.5-2.4v10.7h-6.1v-31.4h5.6
		l0.2,2.2c1.5-1.8,3.4-2.6,5.7-2.6c2.8,0,5,1,6.5,3.1c1.5,2.1,2.3,4.9,2.3,8.5V345.9z M1694.7,345.4c0-2.1-0.4-3.7-1.1-4.9
		c-0.7-1.1-1.8-1.7-3.3-1.7c-1.9,0-3.2,0.7-3.9,2.2v9.3c0.7,1.5,2.1,2.2,4,2.2C1693.3,352.5,1694.7,350.2,1694.7,345.4z"/>
</g>
</svg>
